<?xml version="1.0" standalone="no"?>
<!DOCTYPE svg PUBLIC "-//W3C//DTD SVG 20010904//EN"
 "http://www.w3.org/TR/2001/REC-SVG-20010904/DTD/svg10.dtd">
<svg version="1.0" xmlns="http://www.w3.org/2000/svg"
 width="56.000000pt" height="38.000000pt" viewBox="0 0 512.000000 512.000000"
 preserveAspectRatio="xMidYMid meet">

<g transform="translate(0.000000,512.000000) scale(0.100000,-0.100000)"
fill="#ffffff" stroke="none">
<path d="M986 4998 c4 -7 28 -42 54 -78 336 -461 592 -1006 785 -1670 47 -162
115 -418 115 -434 0 -3 -171 -6 -380 -6 -209 0 -380 -3 -380 -8 0 -4 59 -79
131 -167 73 -88 374 -463 671 -832 296 -370 540 -673 542 -673 3 0 61 71 129
158 69 86 375 463 681 837 l556 680 -370 3 c-286 2 -370 5 -370 15 0 55 160
601 245 837 185 512 372 865 704 1331 13 19 6 19 -383 19 l-396 0 -27 -42
c-14 -24 -59 -108 -99 -188 -251 -501 -395 -1050 -504 -1920 -11 -91 -23 -182
-26 -202 l-6 -38 417 0 c229 0 415 -4 413 -8 -1 -5 -217 -270 -478 -590 l-475
-581 -22 22 c-12 12 -229 276 -483 587 l-462 565 431 3 430 2 -4 28 c-3 15
-16 117 -30 227 -111 881 -285 1497 -572 2017 l-64 118 -390 0 c-309 0 -389
-3 -383 -12z"/>
<path d="M845 1331 c-169 -53 -242 -83 -364 -147 -226 -118 -326 -240 -292
-355 51 -171 379 -349 866 -469 255 -63 532 -106 915 -142 182 -17 978 -17
1160 0 762 71 1294 207 1593 405 298 199 254 383 -138 577 -125 62 -351 146
-445 165 -31 6 -26 1 40 -42 84 -56 154 -127 176 -178 8 -19 14 -56 14 -82 -1
-155 -175 -290 -520 -404 -484 -159 -1234 -216 -1890 -144 -529 59 -950 193
-1127 358 -36 34 -74 80 -84 102 -22 48 -24 123 -5 170 22 51 92 123 175 177
40 26 67 48 60 48 -8 -1 -68 -18 -134 -39z"/>
<path d="M1507 1280 c-216 -72 -347 -159 -347 -232 0 -98 227 -217 554 -289
243 -53 412 -70 744 -76 322 -6 483 3 722 38 465 69 802 225 758 351 -23 65
-156 145 -348 208 -66 22 -126 40 -132 40 -6 0 8 -14 31 -30 114 -83 107 -184
-19 -268 -161 -108 -451 -170 -837 -179 -389 -9 -700 35 -920 132 -198 88
-239 215 -102 315 54 39 39 37 -104 -10z"/>
</g>
</svg>
